<svg version="1.2" xmlns="http://www.w3.org/2000/svg" viewBox="0 0 540 504" width="540" height="504">
	<style>
		.s0 { fill: #0f172a }
	</style>
	<g id="Background">
		<path id="Path 1" fill-rule="evenodd" class="s0" d="m38.65 46c0.74 0 3.71 1.45 6.6 3.22 2.89 1.77 9.53 5.09 14.75 7.38 5.22 2.28 14.22 5.56 20 7.29 5.78 1.73 11.85 3.56 13.5 4.07 1.65 0.51 7.5 2.02 13 3.35 5.5 1.34 13.38 3.14 17.5 4 4.13 0.87 12.68 2.49 19 3.61 6.32 1.12 16.45 2.7 22.5 3.51 6.05 0.82 15.05 1.97 20 2.57 4.95 0.6 14.4 1.73 21 2.51 6.6 0.78 16.5 2.3 22 3.37 5.5 1.08 13.15 3.25 17 4.82 3.85 1.57 9.25 4.16 12 5.75 2.75 1.6 7.7 5.64 11.01 8.98 3.31 3.34 8.36 9.67 11.24 14.07 2.88 4.4 6.92 10.43 8.99 13.4 2.07 2.96 6.46 7.64 9.76 10.38 3.3 2.74 8.02 6 10.5 7.23 2.48 1.23 5.06 2.97 5.75 3.87 0.88 1.14 0.96 2.21 0.25 3.62-0.55 1.1-1.79 2.01-2.75 2.02-0.96 0.02-3.55-0.72-5.75-1.63-2.2-0.91-6.25-3.34-9-5.39-2.75-2.05-7.25-5.97-10-8.7-2.75-2.73-8.15-9.65-12-15.36-3.85-5.72-9.75-13.33-13.12-16.92-4.44-4.74-8.13-7.51-13.5-10.14-4.06-2-11.2-4.59-15.88-5.75-4.68-1.17-12.32-2.6-17-3.19-4.68-0.58-10.3-1.45-12.5-1.94-2.2-0.49-7.6-1.15-12-1.48-4.4-0.33-12.05-1.23-17-2.01-4.95-0.77-15.3-2.38-23-3.56-7.7-1.19-18.72-3.05-24.5-4.14-5.78-1.09-16.58-3.55-24-5.45-7.42-1.9-15.53-4.12-18-4.93-2.47-0.8-7.87-2.55-12-3.87-4.12-1.32-10.65-3.75-14.5-5.39-3.85-1.63-8.69-3.92-10.75-5.07-2.06-1.16-4.2-1.88-4.75-1.6-0.55 0.27-1 1.85-1 3.5 0 1.65 0.34 3.17 0.75 3.37 0.41 0.21 1.61 2.57 2.66 5.25 1.05 2.69 3.59 7.35 5.65 10.38 2.06 3.03 5.48 7.11 7.59 9.08 2.12 1.97 5.65 4.95 7.85 6.63 2.2 1.68 6.92 4.66 10.5 6.61 3.58 1.96 11.9 5.34 18.5 7.51 6.6 2.18 17.74 5.13 24.75 6.56 7.01 1.44 14.21 2.63 16 2.65 1.79 0.02 5.95 0.68 9.25 1.48 3.3 0.79 11.63 1.7 18.5 2 6.88 0.31 15.43 0.79 19 1.07 3.91 0.31 6.1 0.87 5.5 1.41-0.55 0.48-7.75 1.18-16 1.54-8.25 0.36-23.55 0.18-34-0.4-11.37-0.62-23.01-1.88-29-3.13-5.5-1.15-12.25-2.79-15-3.65-2.75-0.86-6.01-1.3-7.25-0.96-2.23 0.59-2.23 0.63-0.41 3.35 1.02 1.51 3.02 4.55 4.46 6.75 1.44 2.2 4.32 5.66 6.41 7.69 2.08 2.03 6.49 5.3 9.79 7.28 3.3 1.98 9.38 4.65 13.5 5.94 4.13 1.29 12.68 2.92 19 3.62 6.7 0.74 15.47 1.01 21 0.65 5.22-0.35 15.57-1.29 23-2.1 7.43-0.81 17.1-2.17 21.5-3.02 4.4-0.85 9.13-1.78 10.5-2.07 2.44-0.51 2.45-0.48 0.5 1.04-1.1 0.86-7.62 3.31-14.5 5.44-6.87 2.13-16.78 4.86-22 6.06-7 1.6-13.97 2.3-26.5 2.65-9.35 0.26-17.68 0.68-18.5 0.92-1.08 0.33-0.11 1.86 3.5 5.51 2.75 2.77 7.03 6.23 9.5 7.68 2.47 1.44 7.2 3.45 10.5 4.45 3.3 1.01 8.7 2.24 12 2.75 5 0.77 7.83 0.52 17-1.5 6.05-1.33 13.25-3.09 16-3.91 2.75-0.82 10.18-3.58 16.5-6.14 6.32-2.55 13.19-5.5 15.25-6.54 2.06-1.05 3.97-1.68 4.25-1.4 0.28 0.28-3.89 3.33-9.25 6.8-5.36 3.46-12.22 7.68-15.25 9.37-3.03 1.7-8.43 4.2-12 5.56-3.57 1.36-8.64 3.21-11.25 4.12-2.61 0.91-4.76 1.99-4.77 2.4-0.01 0.41 3.7 2.07 8.25 3.68 7.11 2.52 9.67 2.93 18.27 2.88 7.84-0.05 11.3-0.55 16-2.31 3.3-1.24 10.28-4.67 15.5-7.61 5.22-2.95 10.18-5.37 11-5.39 0.84-0.01-0.93 2.44-4 5.54-3.03 3.06-7.75 7.04-10.5 8.84-2.75 1.81-7.62 4.37-10.83 5.7-3.94 1.63-5.95 3.07-6.2 4.42-0.21 1.1-0.85 4.36-1.42 7.25-0.58 2.89-1.05 7.28-1.05 9.75 0 2.47 0.45 4.5 1 4.5 0.55 0 2.46-0.98 4.25-2.17 1.79-1.19 6.4-4.52 10.25-7.39 3.85-2.87 12.4-8.33 19-12.12 6.6-3.8 17.18-9.19 23.5-11.99 6.32-2.79 16.45-6.9 22.5-9.13 6.05-2.23 17.52-6.07 25.5-8.53 7.98-2.47 16.75-5.02 19.5-5.67 2.75-0.65 10.63-2.3 17.5-3.66 9.1-1.79 17.63-2.65 31.35-3.15 10.37-0.38 19.03-1.03 19.25-1.44 0.22-0.41-0.22-1.99-0.98-3.5-0.75-1.51-4.4-5.68-8.09-9.25-3.69-3.57-9.71-8.69-13.37-11.37-3.66-2.67-10.48-6.75-15.16-9.07-4.68-2.31-12.1-5.59-16.5-7.29-4.4-1.71-11.82-4.11-16.5-5.36-7.19-1.91-12.03-2.34-54.5-3.41v-3c0-2.77 0.39-3.1 5-4.25 2.75-0.68 9.27-1.53 14.5-1.87 5.77-0.38 12.44-0.16 17 0.57 4.13 0.67 10.31 1.62 13.75 2.13 3.44 0.51 9.96 2.21 14.5 3.8 4.54 1.58 12.3 4.52 17.25 6.53 5.19 2.11 14.3 7.2 21.5 12.02 8.58 5.74 15.01 11 20.5 16.79 4.4 4.63 9.46 10.31 11.25 12.6 2.83 3.64 3.99 4.32 9 5.24 3.16 0.59 8.45 1.93 11.75 2.99 3.3 1.05 8.02 3.19 10.5 4.74 2.48 1.55 5.53 4.14 6.79 5.76 1.25 1.62 2.55 4.52 2.87 6.45 0.32 1.93 0.11 5.07-0.47 7-0.63 2.13-2.74 4.88-5.37 7.04-2.37 1.94-5.67 4.39-7.32 5.43-1.65 1.05-6.6 3.37-19 8.44l-0.51 10.3c-0.45 8.9-0.88 10.9-3.23 14.79-1.75 2.9-2.72 5.92-2.72 8.5 0 2.2 0.94 6.03 2.08 8.5 1.14 2.48 2.9 7.2 3.9 10.5 1 3.3 3.25 9.82 5.01 14.5 1.77 4.68 3.39 9.62 3.61 11 0.27 1.69-0.5 3.56-2.37 5.76-2.33 2.75-3.96 3.5-10.27 4.74-4.12 0.81-8.1 2.05-8.83 2.74-0.89 0.85-1.11 2.4-0.66 4.76 0.49 2.56 0.11 4.64-1.42 7.75-1.15 2.34-2.09 5.82-2.09 7.75 0 1.93-0.51 4.51-1.14 5.75-0.63 1.24-2.88 4.16-8.86 10.75l0.5 21.13-4.5 4.3c-2.82 2.7-6.18 4.77-9 5.55-2.77 0.77-7 1.02-11 0.65-3.57-0.33-10.32-1.77-15-3.2-4.68-1.43-9.63-2.83-11-3.12-1.97-0.41-3.05 0.19-5.12 2.84-1.44 1.84-4.05 6.5-5.81 10.35-2.48 5.44-3.32 8.9-3.77 15.5-0.31 4.68-1.07 9.08-1.69 9.79-0.61 0.72-2.35 1.28-3.86 1.25-2.03-0.03-2.87-0.63-3.2-2.29-0.26-1.24-0.21-5.18 0.1-8.75 0.3-3.57 1.67-9.87 3.04-14 1.38-4.12 3.81-9.86 5.4-12.75 2.41-4.35 2.7-5.53 1.66-6.87-0.69-0.89-3.95-2.83-7.25-4.31-3.3-1.48-9.38-4.99-13.5-7.79-4.13-2.8-10.43-8.05-14-11.66-3.57-3.61-6.16-6.8-5.75-7.09 0.41-0.29 5.14 2.03 10.5 5.17 5.36 3.13 15.82 8.59 23.25 12.13 7.43 3.54 19.35 8.4 26.5 10.8 10.87 3.66 14.45 4.41 30.71 4.87l2.88-3.5c1.58-1.93 3.13-4.63 3.43-6 0.31-1.38-0.13-4.86-0.98-7.75-1.12-3.81-1.27-5.93-0.54-7.75 0.55-1.38 2.91-4.55 9.5-11.62l-1.5-3.96c-1.42-3.73-1.39-4.03 0.5-5.29 1.1-0.74 2.79-2.08 3.75-2.99 1.31-1.22 1.75-3.22 1.74-7.89 0-3.92 0.56-7.09 1.5-8.5 0.83-1.24 3.2-2.7 5.26-3.24 2.06-0.55 5.21-1 7-1 1.96-0.01 4.34-0.94 8.75-4.71l-2.19-2.9c-1.2-1.6-3.15-5.6-4.34-8.9-1.19-3.3-3.03-9.15-4.08-13-1.05-3.85-2.65-8.57-3.56-10.5-0.9-1.93-1.87-5.3-2.15-7.5-0.36-2.87 0.05-4.99 1.48-7.5 1.09-1.93 2.74-5.75 3.67-8.5 0.93-2.75 1.66-7.25 1.62-10-0.03-2.75-0.39-6.8-0.78-9-0.51-2.86-1.41-4.34-3.19-5.21-1.36-0.66-8.11-1.73-14.98-2.36-9.03-0.83-15.56-0.86-23.5-0.11-6.05 0.58-15.73 2.23-21.5 3.66-5.77 1.44-14.32 3.78-19 5.2-4.68 1.41-10.22 3.53-12.31 4.7-2.96 1.64-3.78 2.68-3.65 4.62 0.1 1.37 0.12 3.06 0.07 3.75-0.06 0.69-2.47 2.89-5.36 4.89-2.89 2-6.41 5.04-7.82 6.75-1.42 1.71-4.12 4.08-6 5.27-1.89 1.19-5.68 2.94-8.43 3.88-4.91 1.69-5.07 1.68-9-0.51-2.2-1.23-5.35-3.83-7-5.77-1.65-1.95-4.69-4.38-6.75-5.4-2.06-1.02-5.77-1.86-8.25-1.86-3.27 0-5.25 0.64-7.25 2.34-1.51 1.29-3.39 3.88-4.16 5.75-0.97 2.33-1.29 5.95-1 11.47 0.34 6.75 0.88 8.79 3.26 12.5 1.57 2.44 6.07 7.59 10 11.44 3.93 3.85 8.39 8.46 9.9 10.25 1.75 2.07 3.66 3.25 5.25 3.25 1.5 0 2.9 0.8 3.5 2 0.55 1.1 0.89 4.81 0.5 14.5l-3.25 0.25c-2.9 0.22-3.41-0.15-4.79-3.5-0.85-2.06-2-4.65-2.56-5.75-0.55-1.1-3.83-4.93-7.29-8.5-3.45-3.57-8.45-8.52-11.11-11-3.26-3.04-5.96-6.94-8.31-12-2.07-4.48-3.72-9.86-4.08-13.36-0.34-3.22-0.95-6.03-1.36-6.25-0.41-0.21-3.94 2.65-7.85 6.36-3.9 3.71-7.73 7.99-8.5 9.5-0.81 1.59-1.14 3.91-0.78 5.5 0.34 1.51 1.8 4.77 3.25 7.25 2.1 3.59 2.73 6.21 3.13 13 0.49 8.41 0.53 8.5 3.25 8.75 1.96 0.18 3.06 1.04 3.81 3 0.75 1.97 0.72 5.32-0.14 11.75-0.66 4.95-1.78 11.7-2.49 15-0.71 3.3-2.39 9.15-3.73 13-1.34 3.85-3.62 9.36-5.07 12.25-1.45 2.89-4.99 8.7-7.88 12.91-3.7 5.4-7.61 9.5-13.25 13.87-4.4 3.41-9.35 6.9-11 7.75-1.65 0.85-4.24 2.04-5.75 2.63-1.81 0.72-2.92 0.75-3.25 0.09-0.28-0.55 5.71-7.41 13.3-15.25 10.15-10.48 14.8-16.1 17.55-21.25 2.06-3.85 5.09-10.38 6.74-14.5 1.64-4.13 3.84-12.68 4.88-19 1.05-6.32 1.7-11.84 1.47-12.25-0.24-0.41-2.01-0.75-3.94-0.75-1.93 0-3.72-0.45-4-1-0.28-0.55-0.01-4.26 0.6-8.25 0.8-5.27 0.8-8.96 0-13.5-0.61-3.44-1.55-6.25-2.1-6.25-0.55 0-2.46-2.72-4.25-6.05-1.79-3.32-4.46-8.38-5.94-11.25-1.47-2.86-2.98-7.23-3.35-9.7-0.51-3.45-0.17-5.66 1.45-9.5 1.77-4.17 2.16-7.32 2.59-33l-7-0.62c-3.85-0.34-9.7-1.4-13-2.37-3.3-0.96-7.8-2.89-10-4.27-2.2-1.39-5.57-3.96-7.5-5.7-3.01-2.74-4.54-3.29-11-3.95-4.13-0.43-10.43-1.89-14-3.26-3.57-1.37-8.75-3.99-11.5-5.83-2.75-1.84-6.57-5.45-8.5-8.02-1.93-2.57-4.63-6.75-6-9.3-2.25-4.17-3.19-4.87-9.5-7.22-3.85-1.44-8.8-3.53-11-4.66-2.2-1.13-7.15-4.64-11-7.79-3.85-3.16-8.41-7.82-10.13-10.37-1.72-2.55-3.82-7.11-4.66-10.14-0.85-3.03-1.8-6.74-2.12-8.25-0.46-2.12-2.24-3.69-7.84-6.89-4.71-2.69-10.41-7.33-16.26-13.25-4.95-5.01-10.41-11.58-12.12-14.61-1.72-3.03-3.87-8.2-4.79-11.5-0.92-3.3-2.12-8.03-2.67-10.5-0.55-2.48-0.74-5.85-0.41-7.5 0.32-1.65 1.31-3.79 2.19-4.75 0.88-0.96 2.21-1.75 2.96-1.75zm351.1 175.04c2.89-0.02 7.61 0.84 10.5 1.92 2.89 1.07 7.16 3.32 9.5 5 3.39 2.42 4.14 3.5 3.71 5.29-0.29 1.24-0.74 2.59-1 3-0.25 0.41-1.25 0.75-2.21 0.75-0.96 0-4.45-1.64-7.75-3.63-3.3-1.99-7.8-4.25-10-5.02-2.2-0.76-5.24-1.38-6.75-1.37-1.51 0.01-6.57 1.03-11.23 2.27-4.66 1.24-8.83 1.88-9.25 1.42-0.42-0.45 0.13-1.35 1.22-2 1.1-0.64 5.6-2.62 10-4.38 5.36-2.15 9.75-3.23 13.26-3.25zm3.25 16.08c1.92-0.05 4.08 0.24 4.78 0.65 0.84 0.48 1.18 2.46 1 5.73-0.25 4.54-0.5 5-2.7 5-1.8 0-2.66-0.77-3.4-3-0.54-1.65-1.47-3.33-2.08-3.74-0.6-0.4-3.13-0.45-5.6-0.1-2.92 0.4-4.76 0.22-5.25-0.52-0.41-0.63-0.41-1.35 0-1.6 0.41-0.26 2.77-0.89 5.25-1.4 2.47-0.5 6.07-0.96 8-1.02z"/>
	</g>
</svg>
